<?xml version="1.0" encoding="utf-8"?>
<!-- Generator: Adobe Illustrator 21.0.0, SVG Export Plug-In . SVG Version: 6.00 Build 0)  -->
<svg version="1.1" id="Layer_1" xmlns="http://www.w3.org/2000/svg" xmlns:xlink="http://www.w3.org/1999/xlink" x="0px" y="0px"
	 viewBox="0 0 57 21" style="enable-background:new 0 0 57 21;" xml:space="preserve">
<style type="text/css">
	.st0{fill:#00B055;}
	.st1{fill:#A0A0A0;}
	.st2{fill:#FE1A0E;}
</style>
<g>
	<g>
		<path class="st0" d="M17.3,10.6c0,4.5-3.6,8.1-8.1,8.1s-8.1-3.6-8.1-8.1s3.6-8.1,8.1-8.1S17.3,6.2,17.3,10.6z M12.2,12.9
			c-0.7,0.9-1.8,1.4-2.9,1.4s-2.2-0.5-2.9-1.4c-0.4-0.5-1.2,0.1-0.8,0.7c0.9,1.1,2.3,1.8,3.7,1.8s2.8-0.6,3.7-1.8
			C13.4,13,12.6,12.4,12.2,12.9z M5.6,9.1c0,0.6,0.5,1,1,1s1-0.5,1-1c0-0.6-0.5-1-1-1S5.6,8.5,5.6,9.1z M10.8,9.1c0,0.6,0.5,1,1,1
			s1-0.5,1-1c0-0.6-0.5-1-1-1S10.8,8.5,10.8,9.1z"/>
	</g>
</g>
<g>
	<g>
		<path class="st1" d="M36.2,10.6c0,4.5-3.6,8.1-8.1,8.1c-4.5,0-8.1-3.6-8.1-8.1s3.6-8.1,8.1-8.1C32.6,2.6,36.2,6.2,36.2,10.6z
			 M24.5,9.1c0,0.6,0.5,1,1,1s1-0.5,1-1c0-0.6-0.5-1-1-1S24.5,8.5,24.5,9.1z M31.2,13.2H25c-0.7,0-0.7,1,0,1h6.2
			C31.9,14.3,31.9,13.2,31.2,13.2z M31.7,9.1c0-0.6-0.5-1-1-1c-0.6,0-1,0.5-1,1c0,0.6,0.5,1,1,1C31.3,10.1,31.7,9.6,31.7,9.1z"/>
	</g>
</g>
<g>
	<g>
		<path class="st2" d="M55,10.6c0,4.5-3.6,8.1-8.1,8.1s-8.1-3.6-8.1-8.1s3.6-8.1,8.1-8.1S55,6.2,55,10.6z M50.7,14.5
			c-0.9-1.1-2.3-1.8-3.7-1.8c-1.4,0-2.8,0.6-3.7,1.7c-0.4,0.5,0.4,1.2,0.8,0.7c0.7-0.9,1.8-1.4,2.9-1.4c1.1,0,2.2,0.5,2.9,1.4
			C50.3,15.7,51.1,15,50.7,14.5z M43.3,9.1c0,0.6,0.5,1,1,1c0.6,0,1-0.5,1-1c0-0.6-0.5-1-1-1C43.8,8,43.3,8.5,43.3,9.1z M48.5,9.1
			c0,0.6,0.5,1,1,1c0.6,0,1-0.5,1-1c0-0.6-0.5-1-1-1C49,8,48.5,8.5,48.5,9.1z"/>
	</g>
</g>
</svg>
